<svg width="32" height="26" viewBox="0 0 32 26" fill="none" xmlns="http://www.w3.org/2000/svg">
<path fill-rule="evenodd" clip-rule="evenodd" d="M1.55235e-06 21.9393C4.79288 19.6833 7.18929 17.0326 7.18929 13.987C5.14642 13.7614 3.45715 12.9624 2.12143 11.59C0.785708 10.2176 0.117859 8.62908 0.117859 6.8243C0.117859 4.90672 0.766066 3.28996 2.0625 1.97397C3.35894 0.657982 4.98928 4.54004e-07 6.95357 2.8228e-07C9.15358 8.99484e-08 11.0589 0.855379 12.6696 2.56616C14.2804 4.27694 15.0857 6.35429 15.0857 8.79827C15.0857 16.1302 10.8036 21.864 2.23929 26L1.55235e-06 21.9393ZM16.9143 21.9393C21.7465 19.6833 24.1625 17.0326 24.1625 13.987C22.0803 13.7614 20.3714 12.9624 19.0357 11.59C17.7 10.2176 17.0321 8.62908 17.0321 6.8243C17.0321 4.90671 17.6902 3.28995 19.0062 1.97397C20.3223 0.657981 21.9625 -1.02984e-06 23.9268 -1.20157e-06C26.1268 -1.3939e-06 28.0223 0.855378 29.6134 2.56616C31.2045 4.27694 32 6.35429 32 8.79826C32 16.1302 27.7375 21.864 19.2125 26L16.9143 21.9393Z" fill="#C5D92F"/>
</svg>
