<svg width="32" height="26" viewBox="0 0 32 26" fill="none" xmlns="http://www.w3.org/2000/svg">
<path fill-rule="evenodd" clip-rule="evenodd" d="M32 4.06074C27.2071 6.31671 24.8107 8.96745 24.8107 12.013C26.8536 12.2386 28.5429 13.0376 29.8786 14.41C31.2143 15.7824 31.8821 17.3709 31.8821 19.1757C31.8821 21.0933 31.2339 22.71 29.9375 24.026C28.6411 25.342 27.0107 26 25.0464 26C22.8464 26 20.9411 25.1446 19.3304 23.4338C17.7196 21.7231 16.9143 19.6457 16.9143 17.2017C16.9143 9.86981 21.1964 4.13596 29.7607 0L32 4.06074ZM15.0857 4.06074C10.2535 6.31671 7.8375 8.96745 7.8375 12.013C9.91965 12.2386 11.6286 13.0376 12.9643 14.41C14.3 15.7824 14.9679 17.3709 14.9679 19.1757C14.9679 21.0933 14.3098 22.71 12.9937 24.026C11.6777 25.342 10.0375 26 8.07321 26C5.8732 26 3.97769 25.1446 2.38661 23.4338C0.795528 21.7231 0 19.6457 0 17.2017C0 9.86981 4.26246 4.13596 12.7875 0L15.0857 4.06074Z" fill="#C5D92F"/>
</svg>
