<svg width="73" height="97" viewBox="0 0 73 97" fill="none" xmlns="http://www.w3.org/2000/svg">
<path d="M60.9535 15.2203C56.0795 10.2124 50.0012 7.03911 43.6007 5.69945C40.9278 5.14003 38.4629 3.84982 36.5322 1.91885L36.5006 1.88733L36.4691 1.91885C34.5381 3.84982 32.0732 5.14003 29.4005 5.69945C23 7.03911 16.9217 10.2124 12.0478 15.2205C-0.941321 28.5671 -0.83072 49.9165 12.3794 63.1266L31.1771 81.9243C34.1173 84.8645 38.884 84.8645 41.8242 81.9243L60.6219 63.1266C73.8322 49.9163 73.9428 28.5669 60.9535 15.2203Z" fill="#B1D952"/>
<path d="M25.9211 43.0083C25.9211 28.1088 32.3633 14.7147 42.6131 5.45673C40.3228 4.8088 38.2227 3.60956 36.5322 1.91885L36.5006 1.88733L36.4691 1.91885C34.5381 3.84982 32.0732 5.14003 29.4005 5.69945C23 7.03911 16.9217 10.2124 12.0478 15.2205C-0.941321 28.5671 -0.83072 49.9165 12.3794 63.1266L31.1771 81.9243C34.1173 84.8645 38.884 84.8645 41.8242 81.9243L42.9179 80.8306C32.492 71.5638 25.9211 58.0545 25.9211 43.0083Z" fill="#91B706"/>
<path d="M62.3059 13.9039C57.3344 8.79569 50.9999 5.3199 43.9872 3.8519C41.6265 3.35778 39.51 2.22781 37.8665 0.584284L37.8349 0.552765C37.0977 -0.184255 35.903 -0.184255 35.1656 0.552765L35.1341 0.584284C33.4906 2.22781 31.3741 3.35778 29.0133 3.8519C22.0008 5.31971 15.6662 8.79569 10.6947 13.9039C4.06034 20.7207 0.440164 29.7173 0.500748 39.2364C0.561711 48.7645 4.30608 57.7229 11.0442 64.4608L29.8419 83.2587C31.1959 84.6127 32.8634 85.4656 34.6126 85.8208V94.7462C34.6126 95.7886 35.4578 96.6336 36.5 96.6336C37.5422 96.6336 38.3874 95.7886 38.3874 94.7462V85.821C40.1366 85.4658 41.8041 84.6129 43.1581 83.2589L61.9558 64.4612C68.6939 57.7231 72.4383 48.7647 72.4992 39.2366C72.5604 29.7174 68.9404 20.7207 62.3059 13.9039ZM59.287 61.7919L40.4893 80.5896C39.8761 81.2028 39.1557 81.6446 38.3877 81.916V72.1847L55.0614 55.5315C55.799 54.7948 55.7997 53.5999 55.0631 52.8623C54.3266 52.1248 53.1317 52.1242 52.394 52.8608L38.3879 66.8499V55.2761L55.0616 38.6228C55.7992 37.8862 55.7999 36.6913 55.0633 35.9537C54.3268 35.2161 53.1319 35.2156 52.3941 35.9522L38.3879 49.9412V38.8261L47.5151 26.6941C48.1417 25.8612 47.9745 24.6778 47.1416 24.0512C46.3089 23.4247 45.1253 23.5918 44.4987 24.4247L38.3879 32.5472V20.0769C38.3879 19.0345 37.5428 18.1895 36.5006 18.1895C35.4583 18.1895 34.6132 19.0345 34.6132 20.0769V32.5472L28.5024 24.4247C27.8756 23.5918 26.6926 23.4246 25.8595 24.0512C25.0266 24.6778 24.8592 25.8612 25.486 26.6941L34.6132 38.8261V49.9412L20.607 35.952C19.8696 35.2154 18.6747 35.2161 17.9378 35.9535C17.2012 36.6911 17.202 37.886 17.9395 38.6227L34.6132 55.2761V66.8499L20.607 52.8606C19.8696 52.124 18.6747 52.1248 17.9378 52.8621C17.2012 53.5997 17.202 54.7946 17.9395 55.5313L34.6132 72.1847V81.9158C33.8454 81.6444 33.1248 81.2028 32.5116 80.5896L13.7139 61.7919C7.68222 55.7602 4.33042 47.7415 4.27588 39.2125C4.22152 30.6913 7.46177 22.6383 13.4 16.5366C17.8457 11.9686 23.5122 8.85986 29.787 7.54663C32.2796 7.02477 34.5707 5.95311 36.5004 4.41679C38.4302 5.95311 40.7211 7.02477 43.2138 7.54663C49.4885 8.85986 55.1552 11.9686 59.6007 16.5366C65.539 22.6383 68.7792 30.6913 68.7249 39.2125C68.6705 47.7415 65.3187 55.7604 59.287 61.7919Z" fill="#15420E"/>
</svg>
