<svg width="44" height="44" viewBox="0 0 44 44" fill="none" xmlns="http://www.w3.org/2000/svg">
<rect width="44" height="44" rx="22" fill="#C5D92F"/>
<path d="M20.5405 17.3271C19.6955 16.7078 18.8285 15.9444 18.2114 15.0188L17.6713 14.2086C17.5568 14.0369 17.3435 13.9605 17.1453 14.02C16.9475 14.08 16.8125 14.2621 16.8125 14.4686V21.8231C16.5356 21.6616 16.218 21.5624 15.875 21.5624C14.8409 21.5624 14 22.4033 14 23.4374C14 24.4714 14.8409 25.3123 15.875 25.3123C16.9091 25.3123 17.75 24.4714 17.75 23.4373V16.0077C18.4124 16.845 19.2409 17.5368 19.9862 18.0833C20.3524 18.3516 20.5625 18.7654 20.5625 19.2186C20.5625 19.994 19.9317 20.6248 19.1563 20.6248C18.8972 20.6248 18.6875 20.8345 18.6875 21.0936C18.6875 21.3527 18.8972 21.5623 19.1563 21.5623C20.4485 21.5623 21.5 20.5109 21.5 19.2186C21.5 18.4747 21.1416 17.7679 20.5405 17.3271Z" fill="#15420E"/>
<path d="M29.4026 17.8302L22.7776 19.7052C22.5762 19.7629 22.4375 19.9469 22.4375 20.1561V26.5106C22.1606 26.3492 21.843 26.2499 21.5 26.2499C20.4659 26.2499 19.625 27.0908 19.625 28.1249C19.625 29.159 20.4659 29.9999 21.5 29.9999C22.5341 29.9999 23.375 29.159 23.375 28.1249C23.375 28.018 23.375 22.3849 23.375 22.3849L29.0625 20.7777V24.6356C28.7856 24.4742 28.468 24.3749 28.125 24.3749C27.0909 24.3749 26.25 25.2158 26.25 26.2499C26.25 27.284 27.0909 28.1249 28.125 28.1249C29.1591 28.1249 30 27.284 30 26.2499C30 26.143 30 18.2811 30 18.2811C30 17.9711 29.7034 17.7453 29.4026 17.8302Z" fill="#15420E"/>
</svg>
