<svg width="73" height="72" viewBox="0 0 73 72" fill="none" xmlns="http://www.w3.org/2000/svg">
<path d="M68.9829 41.8841H59.5615H48.0307V29.9727C48.0307 28.8079 47.0863 27.8634 45.9215 27.8634H36.5V15.2489C36.5 14.4723 35.8705 13.8428 35.0939 13.8428H13.4384H4.01701C2.85214 13.8428 1.90771 14.7872 1.90771 15.9521V27.8634V41.8841V55.9047V67.8161C1.90771 68.981 2.85214 69.9254 4.01701 69.9254H24.9692H48.0306H68.9828C70.1478 69.9254 71.092 68.981 71.092 67.8161V55.9047V43.9934C71.0922 42.8284 70.1479 41.8841 68.9829 41.8841Z" fill="#D66B59"/>
<path d="M21.5207 33.5918C21.5207 26.4152 23.3999 19.6785 26.6894 13.8428H13.4384H4.01701C2.85214 13.8428 1.90771 14.7872 1.90771 15.9521V27.8634V41.8841V55.9047V67.8161C1.90771 68.981 2.85214 69.9254 4.01701 69.9254H24.9692H44.3928C30.8628 63.4311 21.5207 49.6028 21.5207 33.5918Z" fill="#B75245"/>
<path d="M69.6859 10.318C69.6859 12.1053 68.2369 13.5543 66.4496 13.5543H54.1839C53.4599 13.5543 52.873 12.9674 52.873 12.2434V8.39251C52.873 7.66853 53.4599 7.08167 54.1839 7.08167H66.4496C68.2369 7.08167 69.6859 8.53061 69.6859 10.318Z" fill="#675EFB"/>
<path d="M68.9808 40.4764H49.4383V29.975C49.4383 28.0344 47.8595 26.4557 45.919 26.4557H37.9076V15.6939H35.0922V26.4557H14.8461V15.2505H30.007V12.4351H4.01924C2.07873 12.4351 0.5 14.0138 0.5 15.9543V67.8138C0.5 69.7543 2.07873 71.3331 4.01924 71.3331H68.9808C70.9213 71.3331 72.5 69.7543 72.5 67.8138V43.9956C72.5 42.0551 70.9213 40.4764 68.9808 40.4764ZM69.6846 43.9956V54.497H60.9693V43.2918H68.9808C69.3687 43.2918 69.6846 43.6075 69.6846 43.9956ZM58.1539 54.497H37.9076V43.2918H58.1537V54.497H58.1539ZM14.8461 54.497V43.2918H35.0922V54.497H14.8461ZM3.31539 54.497V43.2918H12.0307V54.497H3.31539ZM45.919 29.2711C46.3071 29.2711 46.6229 29.5869 46.6229 29.975V40.4764H26.3768V29.2711H45.919ZM23.5614 29.2711V40.4764H3.31539V29.2711H23.5614ZM3.31539 15.9543C3.31539 15.5662 3.63114 15.2505 4.01924 15.2505H12.0307V26.4557H3.31539V15.9543ZM3.31539 67.8138V57.3124H23.5614V68.5177H4.01924C3.63114 68.5177 3.31539 68.2019 3.31539 67.8138ZM26.3768 57.3124H46.6229V68.5177H26.3768V57.3124ZM69.6846 67.8138C69.6846 68.2019 69.3689 68.5177 68.9808 68.5177H49.4383V57.3124H69.6845V67.8138H69.6846Z" fill="#022777"/>
<path d="M19.9258 12.5321L35.6492 19.5724C37.3878 20.3509 39.4275 19.9621 40.7577 18.5987L45.4618 13.7776C47.3394 11.8533 47.3394 8.78257 45.4618 6.85839L40.7577 2.03731C39.4273 0.673816 37.3877 0.285151 35.6492 1.06361L19.9258 8.10378C18.013 8.96022 18.013 11.6757 19.9258 12.5321Z" fill="#63CCD2"/>
<path d="M66.4498 5.67395H54.1841C52.685 5.67395 51.4656 6.89344 51.4656 8.39249V8.91038H40.4565C39.6792 8.91038 39.0488 9.54061 39.0488 10.3181C39.0488 11.0956 39.6792 11.7258 40.4565 11.7258H51.4656V12.2435C51.4656 13.7426 52.685 14.9621 54.1841 14.9621H66.4498C69.0104 14.9621 71.0938 12.8788 71.0938 10.3181C71.0938 7.75734 69.0105 5.67395 66.4498 5.67395ZM66.4498 12.1467H54.2809V8.48948H66.4498C67.4581 8.48948 68.2784 9.30989 68.2784 10.3181C68.2784 11.3263 67.4581 12.1467 66.4498 12.1467Z" fill="#022777"/>
</svg>
