<svg width="176" height="45" viewBox="0 0 176 45" fill="none" xmlns="http://www.w3.org/2000/svg">
<path d="M29.6812 20.1988L18.2816 20.9753C17.1634 21.2859 16.977 21.4412 16.6974 22.5594C15.1754 28.0573 15.3307 34.8287 14.3678 40.4819C14.0572 41.4138 13.4981 41.9108 12.5041 41.7865C12.1624 41.7555 12.1003 41.9108 12.1624 41.4448C13.0322 34.8598 13.6534 28.2748 14.8959 21.7518C10.2677 21.9071 5.48421 21.5344 1.04241 22.87C-0.0447489 22.9011 -0.200057 21.6897 0.203744 20.851C1.75682 20.3541 3.40308 20.1988 4.98722 20.0124C8.86992 19.5154 13.3738 19.0184 17.2565 18.8631C21.543 18.6767 25.8606 19.1427 30.116 18.6457C30.0228 17.8691 31.2032 13.241 31.638 13.1788L32.8494 13.4273L31.9487 18.4282C32.1971 18.6767 37.3223 17.776 36.7321 20.0124C35.4275 20.1677 33.7502 19.795 32.5078 20.0124C32.2593 20.0434 29.9297 20.2298 29.9297 20.2298L29.6812 20.1988Z" fill="#15420E"/>
<path d="M135.321 38.4007C135.818 38.8977 141.813 34.7975 142.745 34.3316C143.677 33.8968 146.224 32.9028 147.031 33.6172C147.932 34.4248 147.59 36.5991 147.59 37.5931C147.59 38.4939 147.777 41.6932 147.373 42.1591C146.534 43.091 145.82 41.6932 145.602 40.9477C145.105 39.2083 145.975 37.2203 145.323 35.543C144.795 35.1392 143.024 36.2264 142.434 36.537C141.099 37.2203 139.856 38.0901 138.614 38.8977C137.992 39.3015 137.34 39.7053 136.688 40.078C136.129 40.3886 135.507 40.8545 134.855 40.8545C134.607 40.8545 134.358 40.8235 134.141 40.6992C133.271 40.2644 133.209 39.3636 133.364 38.5249C133.457 37.9658 133.519 37.4067 133.519 36.8476C133.519 36.537 133.519 36.0089 133.333 35.7604C133.147 35.512 132.743 35.6673 132.526 35.7604C131.687 36.1021 130.972 36.7544 130.289 37.3135C130.041 37.531 129.792 37.7484 129.544 37.9348C128.736 38.6181 127.059 40.4818 126.375 40.8856C125.94 41.1341 125.35 41.1962 124.946 40.8856C124.512 40.5439 124.574 39.9538 124.915 39.55C125.133 39.3325 125.381 39.1462 125.661 38.9908C126.903 38.2143 128.053 37.2825 129.078 36.2264C130.041 35.2324 131.19 34.2695 132.37 33.6172C132.712 33.4308 133.085 33.2445 133.457 33.1513C134.389 32.9338 135.041 33.7725 135.259 34.6112C135.445 35.3566 135.352 36.1332 135.352 36.8787C135.352 37.2203 135.352 37.562 135.352 37.9037C135.321 38.0279 135.259 38.3386 135.321 38.4007Z" fill="#15420E"/>
<path d="M152.84 39.0842C153.741 39.6743 154.704 39.6743 155.698 39.7675C158.369 40.0471 163.991 39.3948 164.239 41.01C164.333 41.6002 163.339 41.6933 162.748 41.7865C160.015 42.1593 154.082 41.8176 151.504 40.7926C149.268 39.8918 148.957 38.3076 149.237 36.0091C149.703 32.0021 157.282 30.915 159.27 33.7416C161.258 36.5682 157.499 37.4379 155.387 38.0591C154.983 38.1523 152.281 38.4629 152.84 39.0842ZM151.256 36.8167C153.523 36.9409 155.666 35.8848 157.623 34.8909C155.915 33.431 151.038 34.0211 151.256 36.8167Z" fill="#15420E"/>
<path d="M48.7842 39.0842C49.685 39.6743 50.6479 39.6743 51.6418 39.7675C54.3131 40.0471 59.9353 39.3948 60.1838 41.01C60.277 41.6001 59.283 41.6933 58.6928 41.7865C55.9594 42.1592 50.0266 41.8176 47.4485 40.7925C45.2121 39.8918 44.9015 38.3076 45.181 36.0091C45.647 32.0021 53.226 30.915 55.2139 33.7416C57.2019 36.5682 53.4434 37.4379 51.3312 38.0591C50.9274 38.1523 48.2251 38.4629 48.7842 39.0842ZM47.2 36.8167C49.4675 36.9409 51.6108 35.8848 53.5677 34.8908C51.8593 33.431 46.9826 34.0211 47.2 36.8167Z" fill="#15420E"/>
<path d="M169.365 33.1824C169.272 33.2135 168.961 33.5552 169.023 33.6484C170.452 34.2385 175.143 35.978 175.577 37.4379C175.95 38.6803 175.608 39.5501 174.49 40.1092C173.372 40.6683 170.359 41.538 169.085 41.7554C168.682 41.8175 166.818 42.4698 166.414 42.035C164.675 40.016 171.136 39.1463 172.347 38.6493C174.024 37.9659 172.533 37.2826 171.601 36.8477C170.204 36.1643 164.395 34.8908 165.482 32.4991C166.321 30.6354 173.527 31.0392 174.863 31.94C175.484 32.3438 173.931 33.1824 173.683 33.1824C172.658 33.1824 170.142 32.965 169.365 33.1824Z" fill="#15420E"/>
<path d="M119.387 36.6925C119.449 36.0712 119.946 34.456 120.536 34.1765C120.815 33.9591 121.064 34.1765 121.219 34.3939C121.84 35.2636 120.94 40.0782 120.94 41.4138C120.691 42.0972 119.387 42.1593 119.387 41.6934C119.387 40.1714 119.2 38.1524 119.387 36.6925Z" fill="#15420E"/>
<path d="M120.412 20.0745C120.536 20.4161 120.754 20.7578 121.002 21.0374C121.468 21.5343 122.276 21.8139 122.897 22.1245C124.109 22.7147 124.854 23.367 125.071 24.7647C125.165 25.2928 125.227 26.0072 125.165 26.5353C125.165 26.5974 125.134 26.7838 125.102 26.8148H125.071C125.009 26.1625 125.071 25.4792 124.916 24.8579C124.761 24.1746 124.233 23.4602 123.643 23.0874C123.239 22.8079 122.835 22.7147 122.338 22.7147C122.089 22.7147 121.81 22.6836 121.593 22.7768V22.8079C122.4 24.6405 123.177 26.4731 123.984 28.3058C124.264 29.2687 123.612 30.418 122.742 30.8218C121.872 31.2256 121.096 30.5733 121.282 29.6414C121.437 28.8649 122.152 28.0262 122.959 27.8709C123.083 27.8398 123.239 27.8398 123.394 27.8398L120.102 20.1987L120.412 20.0745Z" fill="#15420E"/>
<path d="M98.5755 38.5251C98.2648 38.5251 97.9232 38.5561 97.7057 38.5872C96.8671 38.6804 96.0595 38.7736 95.2208 38.8978C91.4313 39.3637 87.4554 40.1403 83.728 39.0531C82.2682 38.6182 80.9014 37.9038 79.7522 36.9409C78.4476 35.8227 77.3915 34.3939 76.9877 32.7166C76.5528 30.9771 76.8945 29.2377 77.7332 27.6535C78.665 25.9451 80.0007 24.6716 81.5227 23.4913C83.0136 22.3109 84.5667 21.2548 86.244 20.3541C88.6668 19.0184 91.2139 17.9623 93.8852 17.2168C94.3511 17.0926 94.817 16.9683 95.1898 16.6888C95.5625 16.4092 95.8421 15.9123 95.6867 15.4463C94.0715 15.4153 92.4874 15.7569 90.9964 16.285C89.3812 16.8752 87.8592 17.6517 86.3683 18.3972C84.2561 19.4843 82.1128 20.5404 80.187 21.9382C77.2672 24.0504 74.7202 27.1255 74.7513 30.915C74.7513 32.7166 75.2172 34.5181 76.149 36.0401C77.143 37.6243 78.5718 38.9289 80.0317 40.0471C80.7772 40.6062 81.5848 41.1342 82.4235 41.538C83.3553 41.9418 84.2561 42.1282 85.2501 42.1903C87.4244 42.3456 89.6297 42.2214 91.804 42.004C94.2579 41.7555 96.5565 41.1032 98.9171 40.3888C98.9171 40.3888 99.5384 40.0781 99.5384 39.2395C99.5073 38.7114 99.0724 38.5561 98.5755 38.5251Z" fill="#15420E"/>
<path d="M115.97 42.5941C115.66 39.3637 115.629 34.3628 111.311 32.9339C108.857 32.1263 106.155 33.3999 104.913 35.6363C104.602 36.1954 104.291 36.7545 103.919 37.2826C103.732 37.5311 103.546 37.7485 103.328 37.9349C103.297 37.9659 102.769 38.2455 102.769 38.1833C103.142 29.8589 103.856 21.5033 105.72 13.3962C105.223 13.3341 104.633 12.8992 104.229 13.3962C103.856 13.8622 102.987 17.5274 102.831 18.3661C102.614 19.3911 102.459 20.4161 102.303 21.4412C102.148 22.4973 102.024 23.5223 101.9 24.5784C101.775 25.6345 101.682 26.6906 101.589 27.7467C101.496 28.8028 101.434 29.8589 101.34 30.9149C101.247 31.971 101.185 33.0271 101.092 34.0832C100.999 35.1393 100.906 36.1643 100.812 37.2204C100.781 37.4379 100.781 37.6242 100.75 37.8417C100.719 38.2455 100.626 38.6803 100.75 39.0531C100.843 39.3947 101.092 39.6743 101.403 39.8607C101.744 40.0781 102.179 40.1713 102.583 40.2334C102.894 40.2645 103.204 40.2955 103.515 40.2023C103.919 40.047 104.198 39.6432 104.447 39.3016C104.757 38.8978 105.006 38.4629 105.285 38.0591C105.503 37.7485 105.689 37.4068 105.907 37.0962C106.59 36.0712 107.46 35.2325 108.609 34.7045C109.23 34.4249 109.945 34.2696 110.628 34.3628C113.144 34.6423 113.796 37.2826 113.951 39.3947C114.014 40.4508 114.014 41.5069 114.169 42.532C114.293 43.3396 114.573 44.2093 115.318 44.6752C117.213 45.8866 116.033 43.3085 115.97 42.5941Z" fill="#15420E"/>
<path d="M43.5964 41.6622C43.2858 38.4318 43.2548 33.4309 38.9372 32.0021C36.4833 31.1945 33.781 32.468 32.5385 34.7044C32.2279 35.2635 31.9173 35.8226 31.5445 36.3507C31.3582 36.5992 31.1718 36.8166 30.9544 37.003C30.9233 37.034 30.3953 37.3136 30.3953 37.2515C30.768 28.927 31.4824 20.5714 33.3461 12.4643C32.8491 12.4022 32.259 11.9674 31.8552 12.4643C31.4824 12.9303 30.6127 16.5955 30.4574 17.4342C30.24 18.4592 30.0847 19.4843 29.9293 20.5093C29.774 21.5654 29.6498 22.5904 29.5255 23.6465C29.4013 24.7026 29.3081 25.7587 29.2149 26.8148C29.1217 27.8709 29.0596 28.927 28.9664 29.9831C28.8733 31.0392 28.8111 32.0952 28.7179 33.1513C28.6248 34.2074 28.5316 35.2325 28.4384 36.2886C28.4073 36.506 28.4073 36.6924 28.3763 36.9098C28.3452 37.3136 28.252 37.7484 28.3763 38.1212C28.4695 38.4629 28.7179 38.7424 29.0286 38.9288C29.3702 39.1462 29.8051 39.2394 30.2089 39.3015C30.5195 39.3326 30.8301 39.3636 31.1407 39.2705C31.5445 39.1152 31.8241 38.7114 32.0726 38.3697C32.3832 37.9659 32.6317 37.531 32.9113 37.1272C33.1287 36.8166 33.3151 36.4749 33.5325 36.1643C34.2158 35.1393 35.0856 34.3006 36.2348 33.7726C36.8561 33.493 37.5705 33.3377 38.2538 33.4309C40.7698 33.7104 41.4221 36.3507 41.5774 38.4629C41.6396 39.519 41.6395 40.575 41.7949 41.6001C41.9191 42.4077 42.1987 43.2774 42.9441 43.7433C44.8389 44.9547 43.6586 42.3766 43.5964 41.6622Z" fill="#15420E"/>
</svg>
