<svg width="73" height="72" viewBox="0 0 73 72" fill="none" xmlns="http://www.w3.org/2000/svg">
<path d="M68.5079 16.2041C68.9923 15.3638 69.271 14.3898 69.271 13.3502C69.271 10.189 66.7084 7.62634 63.5471 7.62634C60.3859 7.62634 57.8233 10.189 57.8233 13.3502C57.8233 14.3898 58.1018 15.3638 58.5863 16.2041C57.0059 17.5863 56.0063 19.6162 56.0063 21.8808C56.0063 26.0455 59.3824 29.4216 63.5471 29.4216C67.7119 29.4216 71.0879 26.0455 71.0879 21.8808C71.0879 19.6163 70.0883 17.5863 68.5079 16.2041Z" fill="#B1D952"/>
<path d="M45.1054 14.5708C47.2223 12.2642 47.8343 8.81033 46.3796 5.82558C44.481 1.92981 39.7837 0.310802 35.888 2.20948C34.586 2.84407 33.5401 3.79207 32.7931 4.91739C30.8755 4.28732 28.6946 4.54101 26.9195 5.79523C24.1826 7.72864 23.3648 11.3644 24.8838 14.2517C24.1372 15.4528 23.7046 16.8697 23.7046 18.388C23.7046 22.7219 27.2178 26.235 31.5516 26.235C33.4004 26.235 35.0987 25.5941 36.4397 24.5244C37.6113 25.5873 39.1665 26.235 40.8731 26.235C44.5184 26.235 47.4735 23.2799 47.4735 19.6348C47.4735 17.6003 46.5524 15.7815 45.1054 14.5708Z" fill="#B1D952"/>
<path d="M4.49162 16.2041C4.00724 15.3638 3.72856 14.3898 3.72856 13.3502C3.72856 10.189 6.2912 7.62634 9.45242 7.62634C12.6136 7.62634 15.1763 10.189 15.1763 13.3502C15.1763 14.3898 14.8977 15.3638 14.4132 16.2041C15.9937 17.5863 16.9932 19.6162 16.9932 21.8808C16.9932 26.0455 13.6171 29.4216 9.45242 29.4216C5.28772 29.4216 1.91162 26.0455 1.91162 21.8808C1.91162 19.6163 2.91115 17.5863 4.49162 16.2041Z" fill="#B1D952"/>
<path d="M1.91162 36.0537C1.91162 55.1282 17.3973 70.5911 36.4999 70.5911C55.6024 70.5911 71.0881 55.1282 71.0881 36.0537H1.91162Z" fill="#67CCD1"/>
<path d="M28.5728 45.2693C28.5728 42.0239 29.1693 38.9183 30.2555 36.0537H1.91162C1.91162 55.1282 17.3973 70.5911 36.4999 70.5911C39.4845 70.5911 42.3808 70.2136 45.1435 69.5039C35.4458 65.7289 28.5728 56.3022 28.5728 45.2693Z" fill="#27A2CC"/>
<path d="M51.598 67.1341C48.9295 66.832 46.8557 64.5715 46.8557 61.8262C46.8557 59.9586 47.816 58.3155 49.2698 57.3603H48.4372C44.7313 57.3603 41.7271 54.3605 41.7271 50.66C41.7271 46.9595 44.7313 43.9596 48.4372 43.9596H70.1761C67.7793 54.1784 60.8388 62.65 51.598 67.1341Z" fill="#B1D952"/>
<path d="M27.2438 42.4387C27.2438 45.9652 24.3808 48.8238 20.8493 48.8238H14.4975C17.8438 48.8238 20.5565 51.5326 20.5565 54.874C20.5565 58.2153 17.8438 60.9241 14.4975 60.9241H12.5027C5.97411 54.6419 1.91162 45.8219 1.91162 36.0536H20.8493C24.3808 36.0537 27.2438 38.9124 27.2438 42.4387Z" fill="#91B706"/>
<path d="M71.0882 34.6419H64.9592V30.721C69.2271 30.042 72.5 26.3369 72.5 21.8808C72.5 19.6637 71.6762 17.5381 70.21 15.904C70.5213 15.0919 70.6831 14.2254 70.6831 13.3502C70.6831 9.41565 67.482 6.21461 63.5474 6.21461C59.6129 6.21461 56.4118 9.41565 56.4118 13.3502C56.4118 14.2255 56.5736 15.0921 56.8849 15.904C55.4186 17.5382 54.5949 19.6637 54.5949 21.8808C54.5949 26.3369 57.8678 30.042 62.1357 30.721V34.6419H37.9118V27.0798C38.8454 27.4511 39.8483 27.6469 40.8735 27.6469C45.2915 27.6469 48.8857 24.0527 48.8857 19.6347C48.8857 17.7211 48.2073 15.8966 46.9908 14.4609C48.8466 11.7398 49.1267 8.2388 47.6491 5.20732C46.5656 2.98407 44.6813 1.31593 42.3432 0.510098C40.005 -0.295737 37.4932 -0.142843 35.2696 0.940686C34.0972 1.51231 33.0611 2.32436 32.2293 3.31767C30.1099 2.9173 27.8833 3.38614 26.1052 4.64233C23.0521 6.79909 21.9232 10.787 23.3003 14.1887C22.6394 15.485 22.2931 16.9219 22.2931 18.3883C22.2931 23.4935 26.4465 27.647 31.5519 27.647C32.7691 27.647 33.9725 27.4022 35.0882 26.941V34.6422H10.8643V30.7213C15.1322 30.0422 18.4053 26.3372 18.4053 21.8811C18.4053 19.6639 17.5815 17.5385 16.1152 15.9043C16.4265 15.0922 16.5883 14.2257 16.5883 13.3505C16.5883 9.41593 13.3873 6.2149 9.45271 6.2149C5.51812 6.2149 2.31694 9.41551 2.31694 13.3501C2.31694 14.2253 2.47873 15.0919 2.79002 15.9038C1.32376 17.5381 0.5 19.6635 0.5 21.8807C0.5 26.3368 3.77289 30.0418 8.0408 30.7209V34.6418H1.91176C1.13205 34.6418 0.5 35.274 0.5 36.0535C0.5 45.6564 4.24485 54.6842 11.0449 61.4742C17.8444 68.2636 26.8845 72.0027 36.5 72.0027C46.1155 72.0027 55.1558 68.2636 61.9551 61.4742C68.7552 54.6842 72.5 45.6564 72.5 36.0535C72.5 35.274 71.8678 34.6419 71.0882 34.6419ZM57.4184 21.8807C57.4184 20.1143 58.1829 18.4326 59.516 17.2666C60.0233 16.8229 60.1462 16.0826 59.8095 15.4988C59.4338 14.8473 59.2353 14.1043 59.2353 13.3501C59.2353 10.9724 61.1697 9.038 63.5474 9.038C65.9251 9.038 67.8595 10.9724 67.8595 13.3501C67.8595 14.104 67.6609 14.8471 67.2852 15.4989C66.9487 16.0828 67.0718 16.823 67.5789 17.2666C68.912 18.4326 69.6765 20.1143 69.6765 21.8807C69.6765 24.7744 67.6602 27.2043 64.9592 27.8438V22.9556C64.9592 22.176 64.327 21.5438 63.5474 21.5438C62.7679 21.5438 62.1357 22.176 62.1357 22.9556V27.8438C59.4347 27.2043 57.4184 24.7744 57.4184 21.8807ZM31.5519 24.8232C28.0034 24.8232 25.1167 21.9365 25.1167 18.388C25.1167 17.1866 25.4508 16.0141 26.0832 14.9971C26.3477 14.5714 26.3669 14.0376 26.1336 13.5942C24.9275 11.3019 25.6157 8.44464 27.7342 6.94817C29.0895 5.99099 30.7726 5.73942 32.3527 6.25838C32.9566 6.45702 33.618 6.22746 33.9696 5.69805C34.6008 4.74751 35.4782 3.97979 36.5069 3.47833C38.0522 2.72502 39.7982 2.61885 41.4231 3.17904C43.0483 3.73923 44.358 4.89871 45.1111 6.44389C46.2777 8.83767 45.8673 11.6529 44.0658 13.6159C43.8049 13.9001 43.6718 14.2785 43.6972 14.6633C43.7226 15.0482 43.9043 15.4059 44.2001 15.6534C45.3835 16.6436 46.0623 18.0946 46.0623 19.6344C46.0623 22.4955 43.7347 24.8231 40.8736 24.8231C39.8065 24.8231 38.7769 24.4964 37.9119 23.894V19.7688C37.9119 18.9893 37.2797 18.3571 36.5001 18.3571C35.7204 18.3571 35.0884 18.9893 35.0884 19.7688V23.763C34.0389 24.4581 32.8277 24.8232 31.5519 24.8232ZM3.32353 21.8807C3.32353 20.1143 4.08814 18.4326 5.42113 17.2666C5.92838 16.8229 6.05134 16.0826 5.71478 15.4988C5.33911 14.8473 5.14047 14.1041 5.14047 13.3501C5.14047 10.9724 7.07487 9.038 9.45257 9.038C11.8303 9.038 13.7647 10.9724 13.7647 13.3501C13.7647 14.1041 13.566 14.8471 13.1904 15.4989C12.8538 16.0828 12.9768 16.823 13.484 17.2666C14.8171 18.4326 15.5816 20.1143 15.5816 21.8807C15.5816 24.7744 13.5653 27.2043 10.8642 27.8438V22.9556C10.8642 22.176 10.2321 21.5438 9.45242 21.5438C8.67271 21.5438 8.04066 22.176 8.04066 22.9556V27.8438C5.33981 27.2043 3.32353 24.7744 3.32353 21.8807ZM59.96 59.4763C53.6937 65.7333 45.3622 69.1792 36.5 69.1792C27.6378 69.1792 19.3063 65.7333 13.04 59.4763C7.10847 53.5535 3.69976 45.7836 3.35289 37.4654H69.6471C69.3002 45.7836 65.8915 53.5535 59.96 59.4763Z" fill="#052A75"/>
</svg>
